<?xml version="1.0" encoding="UTF-8"?>
<svg width="360px" height="140px" viewBox="0 0 360 140" version="1.1" xmlns="http://www.w3.org/2000/svg" xmlns:xlink="http://www.w3.org/1999/xlink" xmlns:sketch="http://www.bohemiancoding.com/sketch/ns">
    <!-- Generator: Sketch 3.4.4 (17249) - http://www.bohemiancoding.com/sketch -->
    <title>Classroom  + Oval 1 + C + 3</title>
    <desc>Created with Sketch.</desc>
    <defs></defs>
    <g id="branding" stroke="none" stroke-width="1" fill="none" fill-rule="evenodd" sketch:type="MSPage">
        <g id="Artboard-1-Copy-2" sketch:type="MSArtboardGroup" transform="translate(-20.000000, -19.000000)" fill="#FFFFFF">
            <g id="Classroom--+-Oval-1-+-C-+-3" sketch:type="MSLayerGroup" transform="translate(20.000000, 19.000000)">
                <text id="Classroom-" sketch:type="MSTextLayer" font-family="Helvetica Neue" font-size="36" font-weight="normal" line-spacing="40">
                    <tspan x="164.412" y="50">Classroom </tspan>
                    <tspan x="162" y="88.7036133" font-weight="bold">Community</tspan>
                    <tspan x="361.656" y="91.0079956"> </tspan>
                    <tspan x="164.412" y="132.052246">Connection</tspan>
                </text>
                <g id="Circle-Logo" sketch:type="MSShapeGroup">
                    <path d="M115.915379,122.838672 C122.704897,116.933731 128.345336,109.741746 132.456739,101.642673 C130.702141,101.594946 129.091575,101.314057 127.625,100.8 C126.008325,100.23333 124.633339,99.4083387 123.5,98.325 C122.366661,97.2416612 121.49167,95.9166745 120.875,94.35 C120.25833,92.7833255 119.966666,90.9833435 120,88.95 L126.75,88.95 C126.783333,89.883338 126.933332,90.7749957 127.2,91.625 C127.466668,92.4750042 127.849997,93.2083302 128.35,93.825 C128.850002,94.4416697 129.474996,94.9333315 130.225,95.3 C130.975004,95.6666685 131.866661,95.85 132.9,95.85 C133.748982,95.85 134.52757,95.7115737 135.235772,95.4347189 C136.262282,92.8038314 137.134235,90.0955923 137.840471,87.3211615 C137.83534,87.3140758 137.830183,87.307022 137.825,87.3 C137.308331,86.5999965 136.650004,86.0916682 135.85,85.775 C135.049996,85.4583317 134.175005,85.2750002 133.225,85.225 C132.274995,85.1749997 131.366671,85.15 130.5,85.15 L130.5,80.15 C131.26667,80.216667 132.083329,80.216667 132.95,80.15 C133.816671,80.083333 134.624996,79.8916682 135.375,79.575 C136.125004,79.2583317 136.741664,78.800003 137.225,78.2 C137.708336,77.599997 137.95,76.800005 137.95,75.8 C137.95,74.2999925 137.450005,73.150004 136.45,72.35 C135.449995,71.549996 134.300006,71.15 133,71.15 C131.199991,71.15 129.841671,71.7416607 128.925,72.925 C128.008329,74.1083392 127.566666,75.599991 127.6,77.4 L120.85,77.4 C120.916667,75.599991 121.241664,73.9583407 121.825,72.475 C122.408336,70.9916592 123.224995,69.716672 124.275,68.65 C125.325005,67.583328 126.583326,66.7583362 128.05,66.175 C129.516674,65.5916637 131.149991,65.3 132.95,65.3 C134.350007,65.3 135.749993,65.5083312 137.15,65.925 C138.153737,66.2237312 139.084644,66.6295455 139.942736,67.1424497 C138.443707,29.8074709 107.702808,0 70,0 C31.3400675,0 0,31.3400675 0,70 C0,108.659932 31.3400675,140 70,140 C76.0789851,140 81.9769851,139.22511 87.6006128,137.768718 C85.1617165,137.405711 82.8842661,136.763853 80.7682353,135.843137 C77.2748845,134.32313 74.3282473,132.229817 71.9282353,129.563137 C69.5282233,126.896457 67.6882417,123.763155 66.4082353,120.163137 C65.1282289,116.563119 64.4882353,112.683158 64.4882353,108.523137 C64.4882353,104.256449 65.1282289,100.296489 66.4082353,96.6431373 C67.6882417,92.9897857 69.5282233,89.8031509 71.9282353,87.0831373 C74.3282473,84.3631237 77.2748845,82.2298117 80.7682353,80.6831373 C84.2615861,79.1364629 88.1948801,78.3631373 92.5682353,78.3631373 C95.7149177,78.3631373 98.6882213,78.8164661 101.488235,79.7231373 C104.288249,80.6298085 106.794891,81.9497953 109.008235,83.6831373 C111.22158,85.4164793 113.048228,87.5631245 114.488235,90.1231373 C115.928242,92.6831501 116.8349,95.6164541 117.208235,98.9231373 L105.048235,98.9231373 C104.834901,97.4831301 104.354906,96.1631433 103.608235,94.9631373 C102.861565,93.7631313 101.928241,92.7098085 100.808235,91.8031373 C99.6882297,90.8964661 98.4215757,90.1898065 97.0082353,89.6831373 C95.5948949,89.1764681 94.1149097,88.9231373 92.5682353,88.9231373 C89.7415545,88.9231373 87.3415785,89.4697985 85.3682353,90.5631373 C83.3948921,91.6564761 81.7949081,93.1231281 80.5682353,94.9631373 C79.3415625,96.8031465 78.4482381,98.8964589 77.8882353,101.243137 C77.3282325,103.589816 77.0482353,106.016458 77.0482353,108.523137 C77.0482353,110.923149 77.3282325,113.256459 77.8882353,115.523137 C78.4482381,117.789815 79.3415625,119.829795 80.5682353,121.643137 C81.7949081,123.45648 83.3948921,124.909798 85.3682353,126.003137 C87.3415785,127.096476 89.7415545,127.643137 92.5682353,127.643137 C96.4082545,127.643137 99.4082245,126.469816 101.568235,124.123137 C103.728246,121.776459 105.048233,118.683156 105.528235,114.843137 L117.688235,114.843137 C117.429222,117.735449 116.838275,120.40061 115.915379,122.838672 Z" id="Oval-1"></path>
                </g>
            </g>
        </g>
    </g>
</svg>